<svg width="99" height="99" viewBox="0 0 99 99" fill="none" xmlns="http://www.w3.org/2000/svg">
<path d="M87.1675 41.9234H78.6583C79.3501 44.4139 79.696 46.9044 79.696 49.3949C79.696 53.5457 78.9004 57.489 77.3092 61.2248C75.7181 64.9605 73.5389 68.212 70.7717 70.9792C68.0045 73.7464 64.753 75.9256 61.0172 77.5168C57.2815 79.1079 53.3382 79.9035 49.1874 79.9035C45.0365 79.9035 41.1278 79.1079 37.4613 77.5168C33.7947 75.9256 30.5778 73.7464 27.8106 70.9792C25.0434 68.212 22.8642 64.9605 21.273 61.2248C19.6819 57.489 18.8863 53.5457 18.8863 49.3949C18.8863 46.9044 19.2322 44.4139 19.924 41.9234H11.2072V83.6393C11.2072 84.7461 11.5877 85.6455 12.3487 86.3373C13.1097 87.0291 14.0436 87.375 15.1505 87.375H83.4317C84.5386 87.375 85.438 87.0291 86.1298 86.3373C86.8216 85.6455 87.1675 84.7461 87.1675 83.6393V41.9234ZM87.1675 15.3581C87.1675 14.2512 86.8216 13.3173 86.1298 12.5563C85.438 11.7953 84.5386 11.4148 83.4317 11.4148H72.0169C70.91 11.4148 70.0107 11.7953 69.3189 12.5563C68.6271 13.3173 68.2812 14.2512 68.2812 15.3581V26.5653C68.2812 27.6722 68.6271 28.6061 69.3189 29.3671C70.0107 30.1281 70.91 30.5086 72.0169 30.5086H83.4317C84.5386 30.5086 85.438 30.1281 86.1298 29.3671C86.8216 28.6061 87.1675 27.6722 87.1675 26.5653V15.3581ZM49.1874 30.5086C43.9296 30.5086 39.4675 32.3419 35.8009 36.0085C32.1344 39.675 30.3011 44.1372 30.3011 49.3949C30.3011 52.0238 30.7853 54.5143 31.7539 56.8664C32.7224 59.2185 34.0714 61.2594 35.8009 62.9889C37.5304 64.7184 39.5367 66.0674 41.8196 67.0359C44.1026 68.0045 46.5585 68.4887 49.1874 68.4887C51.8162 68.4887 54.3067 68.0045 56.6589 67.0359C59.011 66.0674 61.0518 64.7184 62.7813 62.9889C64.5108 61.2594 65.8599 59.2185 66.8284 56.8664C67.7969 54.5143 68.2812 52.0238 68.2812 49.3949C68.2812 46.766 67.7969 44.3101 66.8284 42.0272C65.8599 39.7442 64.5108 37.738 62.7813 36.0085C61.0518 34.279 59.011 32.9299 56.6589 31.9614C54.3067 30.9929 51.8162 30.5086 49.1874 30.5086ZM11.2072 98.7898C8.02494 98.7898 5.36149 97.6829 3.21689 95.4691C1.0723 93.2554 0 90.5573 0 87.375V11.4148C0 8.23248 1.0723 5.53444 3.21689 3.32067C5.36149 1.10689 8.02494 0 11.2072 0H87.1675C90.3498 0 93.0478 1.10689 95.2616 3.32067C97.4754 5.53444 98.5823 8.23248 98.5823 11.4148V87.375C98.5823 90.5573 97.4754 93.2554 95.2616 95.4691C93.0478 97.6829 90.3498 98.7898 87.1675 98.7898H11.2072Z" fill="#F4F1E9"/>
</svg>
