<svg width="86" height="99" viewBox="0 0 86 99" fill="none" xmlns="http://www.w3.org/2000/svg">
<path d="M34.9982 36.9485C19.9 36.2147 9.40515 41.6369 3.5136 53.215C-5.32362 70.582 1.98004 99 31.462 99C60.9441 99 61.7969 70.3041 61.7969 67.298C61.7969 65.2939 61.7969 54.0879 61.7969 33.6807C68.1027 37.7036 73.4193 40.1253 77.7468 40.9458C82.0743 41.7661 84.8252 42.1297 86 42.0365V25.3123C81.9974 24.8262 78.536 23.8996 75.6159 22.5329C71.2356 20.4828 62.5499 14.7928 62.5499 6.4535C62.5558 6.49428 62.5558 4.34312 62.5499 0H44.2995C44.2452 40.8466 44.2452 63.2792 44.2995 67.298C44.3811 73.326 39.7385 81.7583 30.3254 81.7583C20.9123 81.7583 16.2697 73.3328 16.2697 67.8984C16.2697 64.5715 17.4042 59.7493 22.094 56.1783C24.8751 54.0606 28.7352 53.215 34.9982 53.215C34.9982 51.2636 34.9982 45.8414 34.9982 36.9485Z" fill="#F4F1E9"/>
</svg>
