<svg width="102" height="118" viewBox="0 0 102 118" fill="none" xmlns="http://www.w3.org/2000/svg">
<path d="M41.5095 43.7777C23.6023 42.9106 11.1549 49.3186 4.1673 63.0018C-6.31406 83.5264 2.34842 117.111 37.3154 117.111C72.2825 117.111 73.294 83.198 73.294 79.6453C73.294 77.2768 73.294 64.0334 73.294 39.9158C80.773 44.6701 87.0788 47.5322 92.2114 48.5018C97.3439 49.4712 100.607 49.901 102 49.7908V30.0258C97.2527 29.4514 93.1474 28.3563 89.684 26.7411C84.4888 24.3183 74.1871 17.5937 74.1871 7.73819C74.1941 7.78638 74.1941 5.24411 74.1871 0.111328H52.5413C52.4769 48.3846 52.4769 74.8958 52.5413 79.6453C52.638 86.7694 47.1317 96.7347 35.9673 96.7347C24.8029 96.7347 19.2966 86.7773 19.2966 80.3549C19.2966 76.4231 20.6422 70.7241 26.2045 66.5039C29.5031 64.0011 34.0813 63.0018 41.5095 63.0018C41.5095 60.6956 41.5095 54.2875 41.5095 43.7777Z" fill="#F4F1E9"/>
</svg>
